<?xml version="1.0" encoding="UTF-8"?>
<!-- Generated by Pixelmator Pro 3.2.3 -->
<svg width="255" height="68" viewBox="0 0 255 68" xmlns="http://www.w3.org/2000/svg" xmlns:xlink="http://www.w3.org/1999/xlink">
    <g id="g8-copia-copia">
        <g id="g10">
            <path id="path40" fill="#4d4e4f" stroke="none" d="M 108.970459 32.00515 L 108.02449 26.972054 L 127.013641 48.484238 L 114.242607 44.709461 L 114.242607 48.484238 L 100.692955 39.13533 L 97.263618 43.749107 C 97.263618 43.749107 97.263618 35.640141 97.263618 34.801418 C 97.263618 33.962433 89.813622 13.970028 89.813622 13.970028 Z M 129.782593 6.420502 C 129.782593 6.420502 130.639999 22.428455 131.349274 21.694431 C 132.058838 20.960407 133.300522 19.912052 133.300522 19.912052 L 146.337601 43.81897 L 129.309448 28.789509 L 124.224854 32.284725 L 125.998627 28.230389 L 119.521057 31.725578 L 121.505081 27.811039 L 119.521057 27.950813 L 121.031937 25.119736 L 122.096146 21.938931 L 114.409988 27.391693 L 117.924454 21.100208 L 110.50753 23.616901 C 111.335312 22.358566 129.782593 6.420502 129.782593 6.420502 Z M 163.720688 17.395359 L 209.548538 53.991058 L 174.188141 31.731346 L 172.412079 33.752747 L 169.578705 28.941109 L 163.720688 38.366524 L 165.494446 26.41288 Z M 29.351498 66.545532 L 228.982071 66.545532 L 162.623398 14.511059 L 156.237885 18.285824 L 153.045273 14.511059 L 147.313217 20.22641 L 130.695801 3.186768 L 105.153419 22.060562 L 89.189484 10.736271 C 89.189484 10.736271 45.078156 51.275608 29.351498 66.545532"/>
            <path id="path86" fill="#4d4e4f" stroke="none" d="M 5.9942 63.737457 L 12.291132 59.892517 L 18.588066 63.737457 L 16.876995 56.560684 L 22.479609 51.760262 L 15.125371 51.169777 L 12.291132 44.357708 L 9.456892 51.169777 L 2.102661 51.760262 L 7.705275 56.560684 L 5.9942 63.737457"/>
            <path id="path88" fill="#4d4e4f" stroke="none" d="M 239.078522 51.169777 L 231.724304 51.760262 L 237.326889 56.560684 L 235.615814 63.737457 L 241.912201 59.892517 L 248.211136 63.737457 L 246.499771 56.560684 L 252.102661 51.760262 L 244.748154 51.169777 L 241.912201 44.357708 L 239.078522 51.169777"/>
        </g>
    </g>
</svg>
